<svg width="24" height="24" viewBox="0 0 24 24" fill="none" xmlns="http://www.w3.org/2000/svg">
<path d="M11.9999 8.09471C9.84951 8.09471 8.09463 9.84959 8.09463 12C8.09463 14.1504 9.84951 15.9053 11.9999 15.9053C14.1503 15.9053 15.9052 14.1504 15.9052 12C15.9052 9.84959 14.1503 8.09471 11.9999 8.09471ZM23.7128 12C23.7128 10.3828 23.7275 8.78026 23.6366 7.166C23.5458 5.291 23.1181 3.62694 21.747 2.25584C20.373 0.881822 18.7118 0.457018 16.8368 0.366197C15.2196 0.275377 13.6171 0.290025 12.0028 0.290025C10.3856 0.290025 8.7831 0.275377 7.16885 0.366197C5.29384 0.457018 3.62978 0.884752 2.25869 2.25584C0.884661 3.62987 0.459856 5.291 0.369035 7.166C0.278215 8.78319 0.292864 10.3857 0.292864 12C0.292864 13.6142 0.278215 15.2197 0.369035 16.834C0.459856 18.709 0.887591 20.373 2.25869 21.7441C3.63271 23.1181 5.29384 23.5429 7.16885 23.6338C8.78603 23.7246 10.3886 23.7099 12.0028 23.7099C13.62 23.7099 15.2226 23.7246 16.8368 23.6338C18.7118 23.5429 20.3759 23.1152 21.747 21.7441C23.121 20.3701 23.5458 18.709 23.6366 16.834C23.7304 15.2197 23.7128 13.6172 23.7128 12ZM11.9999 18.0088C8.6747 18.0088 5.99111 15.3252 5.99111 12C5.99111 8.67479 8.6747 5.99119 11.9999 5.99119C15.3251 5.99119 18.0087 8.67479 18.0087 12C18.0087 15.3252 15.3251 18.0088 11.9999 18.0088ZM18.2548 7.14842C17.4784 7.14842 16.8515 6.52147 16.8515 5.7451C16.8515 4.96873 17.4784 4.34178 18.2548 4.34178C19.0312 4.34178 19.6581 4.96873 19.6581 5.7451C19.6583 5.92945 19.6222 6.11204 19.5518 6.2824C19.4813 6.45276 19.378 6.60756 19.2476 6.73791C19.1172 6.86827 18.9625 6.97163 18.7921 7.04207C18.6217 7.11251 18.4391 7.14865 18.2548 7.14842Z" fill="#252525"/>
</svg>
